<mxfile host="app.diagrams.net" agent="Mozilla/5.0 (Windows NT 10.0; Win64; x64) AppleWebKit/537.36 (KHTML, like Gecko) Chrome/129.0.0.0 Safari/537.36" version="24.7.7">
  <diagram name="Page-1" id="XJUSoyV6JxCoz0F45K0h">
    <mxGraphModel dx="1407" dy="523" grid="1" gridSize="10" guides="1" tooltips="1" connect="1" arrows="1" fold="1" page="1" pageScale="1" pageWidth="850" pageHeight="1100" math="0" shadow="0">
      <root>
        <mxCell id="0" />
        <mxCell id="1" parent="0" />
        <mxCell id="J6omvvjJ4enyhn-Cp6rl-10" value="" style="group" vertex="1" connectable="0" parent="1">
          <mxGeometry x="230" y="170" width="210" height="180" as="geometry" />
        </mxCell>
        <mxCell id="J6omvvjJ4enyhn-Cp6rl-8" value="" style="group" vertex="1" connectable="0" parent="J6omvvjJ4enyhn-Cp6rl-10">
          <mxGeometry x="-135" y="20" width="210" height="150" as="geometry" />
        </mxCell>
        <mxCell id="J6omvvjJ4enyhn-Cp6rl-2" value="" style="rounded=0;whiteSpace=wrap;html=1;" vertex="1" parent="J6omvvjJ4enyhn-Cp6rl-8">
          <mxGeometry width="210" height="150" as="geometry" />
        </mxCell>
        <mxCell id="J6omvvjJ4enyhn-Cp6rl-4" value="Website" style="rounded=0;whiteSpace=wrap;html=1;" vertex="1" parent="J6omvvjJ4enyhn-Cp6rl-8">
          <mxGeometry x="10" y="10" width="90" height="60" as="geometry" />
        </mxCell>
        <mxCell id="J6omvvjJ4enyhn-Cp6rl-5" value="Website" style="rounded=0;whiteSpace=wrap;html=1;" vertex="1" parent="J6omvvjJ4enyhn-Cp6rl-8">
          <mxGeometry x="110" y="10" width="90" height="60" as="geometry" />
        </mxCell>
        <mxCell id="J6omvvjJ4enyhn-Cp6rl-6" value="Website" style="rounded=0;whiteSpace=wrap;html=1;" vertex="1" parent="J6omvvjJ4enyhn-Cp6rl-8">
          <mxGeometry x="10" y="80" width="90" height="60" as="geometry" />
        </mxCell>
        <mxCell id="J6omvvjJ4enyhn-Cp6rl-7" value="Website" style="rounded=0;whiteSpace=wrap;html=1;" vertex="1" parent="J6omvvjJ4enyhn-Cp6rl-8">
          <mxGeometry x="110" y="80" width="90" height="60" as="geometry" />
        </mxCell>
        <mxCell id="J6omvvjJ4enyhn-Cp6rl-21" value="4 replicas" style="text;html=1;align=center;verticalAlign=middle;resizable=0;points=[];autosize=1;strokeColor=none;fillColor=none;" vertex="1" parent="J6omvvjJ4enyhn-Cp6rl-10">
          <mxGeometry x="-65" y="-10" width="70" height="30" as="geometry" />
        </mxCell>
        <mxCell id="J6omvvjJ4enyhn-Cp6rl-20" value="" style="group" vertex="1" connectable="0" parent="1">
          <mxGeometry x="145" y="400" width="380" height="60" as="geometry" />
        </mxCell>
        <mxCell id="J6omvvjJ4enyhn-Cp6rl-14" value="" style="whiteSpace=wrap;html=1;" vertex="1" parent="J6omvvjJ4enyhn-Cp6rl-20">
          <mxGeometry x="-135" y="-10" width="120" height="60" as="geometry" />
        </mxCell>
        <mxCell id="J6omvvjJ4enyhn-Cp6rl-15" value="Elasticsearch" style="rounded=0;whiteSpace=wrap;html=1;" vertex="1" parent="J6omvvjJ4enyhn-Cp6rl-20">
          <mxGeometry x="-115" width="80" height="40" as="geometry" />
        </mxCell>
        <mxCell id="J6omvvjJ4enyhn-Cp6rl-16" value="" style="whiteSpace=wrap;html=1;" vertex="1" parent="J6omvvjJ4enyhn-Cp6rl-20">
          <mxGeometry x="-5" y="-10" width="120" height="60" as="geometry" />
        </mxCell>
        <mxCell id="J6omvvjJ4enyhn-Cp6rl-17" value="Redis" style="rounded=0;whiteSpace=wrap;html=1;" vertex="1" parent="J6omvvjJ4enyhn-Cp6rl-20">
          <mxGeometry x="15" width="80" height="40" as="geometry" />
        </mxCell>
        <mxCell id="J6omvvjJ4enyhn-Cp6rl-18" value="" style="whiteSpace=wrap;html=1;" vertex="1" parent="J6omvvjJ4enyhn-Cp6rl-20">
          <mxGeometry x="125" y="-10" width="120" height="60" as="geometry" />
        </mxCell>
        <mxCell id="J6omvvjJ4enyhn-Cp6rl-19" value="Kafka" style="rounded=0;whiteSpace=wrap;html=1;" vertex="1" parent="J6omvvjJ4enyhn-Cp6rl-20">
          <mxGeometry x="145" width="80" height="40" as="geometry" />
        </mxCell>
        <mxCell id="J6omvvjJ4enyhn-Cp6rl-22" value="EVERYTHING AUTO SCALES" style="text;html=1;align=center;verticalAlign=middle;resizable=0;points=[];autosize=1;strokeColor=none;fillColor=none;" vertex="1" parent="1">
          <mxGeometry x="105" y="350" width="190" height="30" as="geometry" />
        </mxCell>
        <mxCell id="J6omvvjJ4enyhn-Cp6rl-44" value="" style="group" vertex="1" connectable="0" parent="1">
          <mxGeometry x="680" y="160" width="310" height="70" as="geometry" />
        </mxCell>
        <mxCell id="J6omvvjJ4enyhn-Cp6rl-31" value="" style="group" vertex="1" connectable="0" parent="J6omvvjJ4enyhn-Cp6rl-44">
          <mxGeometry width="70" height="70" as="geometry" />
        </mxCell>
        <mxCell id="J6omvvjJ4enyhn-Cp6rl-30" value="" style="whiteSpace=wrap;html=1;" vertex="1" parent="J6omvvjJ4enyhn-Cp6rl-31">
          <mxGeometry width="70" height="70" as="geometry" />
        </mxCell>
        <mxCell id="J6omvvjJ4enyhn-Cp6rl-28" value="NestJS" style="whiteSpace=wrap;html=1;" vertex="1" parent="J6omvvjJ4enyhn-Cp6rl-31">
          <mxGeometry x="10" y="10" width="50" height="20" as="geometry" />
        </mxCell>
        <mxCell id="J6omvvjJ4enyhn-Cp6rl-29" value="Angular" style="whiteSpace=wrap;html=1;" vertex="1" parent="J6omvvjJ4enyhn-Cp6rl-31">
          <mxGeometry x="10" y="40" width="50" height="20" as="geometry" />
        </mxCell>
        <mxCell id="J6omvvjJ4enyhn-Cp6rl-32" value="" style="group" vertex="1" connectable="0" parent="J6omvvjJ4enyhn-Cp6rl-44">
          <mxGeometry x="80" width="70" height="70" as="geometry" />
        </mxCell>
        <mxCell id="J6omvvjJ4enyhn-Cp6rl-33" value="" style="whiteSpace=wrap;html=1;" vertex="1" parent="J6omvvjJ4enyhn-Cp6rl-32">
          <mxGeometry width="70" height="70" as="geometry" />
        </mxCell>
        <mxCell id="J6omvvjJ4enyhn-Cp6rl-34" value="NestJS" style="whiteSpace=wrap;html=1;" vertex="1" parent="J6omvvjJ4enyhn-Cp6rl-32">
          <mxGeometry x="10" y="10" width="50" height="20" as="geometry" />
        </mxCell>
        <mxCell id="J6omvvjJ4enyhn-Cp6rl-35" value="Angular" style="whiteSpace=wrap;html=1;" vertex="1" parent="J6omvvjJ4enyhn-Cp6rl-32">
          <mxGeometry x="10" y="40" width="50" height="20" as="geometry" />
        </mxCell>
        <mxCell id="J6omvvjJ4enyhn-Cp6rl-36" value="" style="group" vertex="1" connectable="0" parent="J6omvvjJ4enyhn-Cp6rl-44">
          <mxGeometry x="160" width="70" height="70" as="geometry" />
        </mxCell>
        <mxCell id="J6omvvjJ4enyhn-Cp6rl-37" value="" style="whiteSpace=wrap;html=1;" vertex="1" parent="J6omvvjJ4enyhn-Cp6rl-36">
          <mxGeometry width="70" height="70" as="geometry" />
        </mxCell>
        <mxCell id="J6omvvjJ4enyhn-Cp6rl-38" value="NestJS" style="whiteSpace=wrap;html=1;" vertex="1" parent="J6omvvjJ4enyhn-Cp6rl-36">
          <mxGeometry x="10" y="10" width="50" height="20" as="geometry" />
        </mxCell>
        <mxCell id="J6omvvjJ4enyhn-Cp6rl-39" value="Angular" style="whiteSpace=wrap;html=1;" vertex="1" parent="J6omvvjJ4enyhn-Cp6rl-36">
          <mxGeometry x="10" y="40" width="50" height="20" as="geometry" />
        </mxCell>
        <mxCell id="J6omvvjJ4enyhn-Cp6rl-40" value="" style="group" vertex="1" connectable="0" parent="J6omvvjJ4enyhn-Cp6rl-44">
          <mxGeometry x="240" width="70" height="70" as="geometry" />
        </mxCell>
        <mxCell id="J6omvvjJ4enyhn-Cp6rl-41" value="" style="whiteSpace=wrap;html=1;" vertex="1" parent="J6omvvjJ4enyhn-Cp6rl-40">
          <mxGeometry width="70" height="70" as="geometry" />
        </mxCell>
        <mxCell id="J6omvvjJ4enyhn-Cp6rl-42" value="NestJS" style="whiteSpace=wrap;html=1;" vertex="1" parent="J6omvvjJ4enyhn-Cp6rl-40">
          <mxGeometry x="10" y="10" width="50" height="20" as="geometry" />
        </mxCell>
        <mxCell id="J6omvvjJ4enyhn-Cp6rl-43" value="Angular" style="whiteSpace=wrap;html=1;" vertex="1" parent="J6omvvjJ4enyhn-Cp6rl-40">
          <mxGeometry x="10" y="40" width="50" height="20" as="geometry" />
        </mxCell>
        <mxCell id="J6omvvjJ4enyhn-Cp6rl-45" value="Elasticsearch" style="whiteSpace=wrap;html=1;" vertex="1" parent="1">
          <mxGeometry x="680" y="330" width="310" height="40" as="geometry" />
        </mxCell>
        <mxCell id="J6omvvjJ4enyhn-Cp6rl-49" style="edgeStyle=orthogonalEdgeStyle;rounded=0;orthogonalLoop=1;jettySize=auto;html=1;exitX=0.5;exitY=1;exitDx=0;exitDy=0;entryX=0.5;entryY=0;entryDx=0;entryDy=0;" edge="1" parent="1" source="J6omvvjJ4enyhn-Cp6rl-30" target="J6omvvjJ4enyhn-Cp6rl-45">
          <mxGeometry relative="1" as="geometry" />
        </mxCell>
        <mxCell id="J6omvvjJ4enyhn-Cp6rl-51" style="edgeStyle=orthogonalEdgeStyle;rounded=0;orthogonalLoop=1;jettySize=auto;html=1;exitX=0.5;exitY=1;exitDx=0;exitDy=0;entryX=0.5;entryY=0;entryDx=0;entryDy=0;" edge="1" parent="1" source="J6omvvjJ4enyhn-Cp6rl-37" target="J6omvvjJ4enyhn-Cp6rl-45">
          <mxGeometry relative="1" as="geometry" />
        </mxCell>
        <mxCell id="J6omvvjJ4enyhn-Cp6rl-52" style="edgeStyle=orthogonalEdgeStyle;rounded=0;orthogonalLoop=1;jettySize=auto;html=1;exitX=0.5;exitY=1;exitDx=0;exitDy=0;entryX=0.5;entryY=0;entryDx=0;entryDy=0;" edge="1" parent="1" source="J6omvvjJ4enyhn-Cp6rl-33" target="J6omvvjJ4enyhn-Cp6rl-45">
          <mxGeometry relative="1" as="geometry" />
        </mxCell>
        <mxCell id="J6omvvjJ4enyhn-Cp6rl-53" style="edgeStyle=orthogonalEdgeStyle;rounded=0;orthogonalLoop=1;jettySize=auto;html=1;exitX=0.5;exitY=1;exitDx=0;exitDy=0;entryX=0.5;entryY=0;entryDx=0;entryDy=0;" edge="1" parent="1" source="J6omvvjJ4enyhn-Cp6rl-41" target="J6omvvjJ4enyhn-Cp6rl-45">
          <mxGeometry relative="1" as="geometry" />
        </mxCell>
        <mxCell id="J6omvvjJ4enyhn-Cp6rl-55" value="All settings will automatically be sent to Elasticsearch indices" style="text;html=1;align=center;verticalAlign=middle;resizable=0;points=[];autosize=1;strokeColor=none;fillColor=none;" vertex="1" parent="1">
          <mxGeometry x="670" y="290" width="350" height="30" as="geometry" />
        </mxCell>
        <mxCell id="J6omvvjJ4enyhn-Cp6rl-90" value="Discord Bot" style="rounded=0;whiteSpace=wrap;html=1;" vertex="1" parent="1">
          <mxGeometry x="1257.5" y="340" width="75" height="40" as="geometry" />
        </mxCell>
        <mxCell id="J6omvvjJ4enyhn-Cp6rl-92" value="Kafka Server" style="ellipse;shape=cloud;whiteSpace=wrap;html=1;" vertex="1" parent="1">
          <mxGeometry x="1070.0000000000002" y="370" width="120" height="80" as="geometry" />
        </mxCell>
        <mxCell id="J6omvvjJ4enyhn-Cp6rl-54" value="" style="whiteSpace=wrap;html=1;rounded=0;" vertex="1" parent="1">
          <mxGeometry x="1160" y="160" width="270" height="160" as="geometry" />
        </mxCell>
        <mxCell id="J6omvvjJ4enyhn-Cp6rl-57" value="&lt;h5 style=&quot;line-height: 120%;&quot;&gt;&lt;font style=&quot;font-size: 8px;&quot;&gt;Discord Guild&lt;/font&gt;&lt;/h5&gt;" style="whiteSpace=wrap;html=1;" vertex="1" parent="1">
          <mxGeometry x="1170.3846153846155" y="169.41176470588235" width="41.53846153846154" height="28.23529411764706" as="geometry" />
        </mxCell>
        <mxCell id="J6omvvjJ4enyhn-Cp6rl-58" value="&lt;h5 style=&quot;line-height: 120%;&quot;&gt;&lt;font style=&quot;font-size: 8px;&quot;&gt;Discord Guild&lt;/font&gt;&lt;/h5&gt;" style="whiteSpace=wrap;html=1;" vertex="1" parent="1">
          <mxGeometry x="1222.3076923076924" y="169.41176470588235" width="41.53846153846154" height="28.23529411764706" as="geometry" />
        </mxCell>
        <mxCell id="J6omvvjJ4enyhn-Cp6rl-59" value="&lt;h5 style=&quot;line-height: 120%;&quot;&gt;&lt;font style=&quot;font-size: 8px;&quot;&gt;Discord Guild&lt;/font&gt;&lt;/h5&gt;" style="whiteSpace=wrap;html=1;" vertex="1" parent="1">
          <mxGeometry x="1274.2307692307693" y="169.41176470588235" width="41.53846153846154" height="28.23529411764706" as="geometry" />
        </mxCell>
        <mxCell id="J6omvvjJ4enyhn-Cp6rl-60" value="&lt;h5 style=&quot;line-height: 120%;&quot;&gt;&lt;font style=&quot;font-size: 8px;&quot;&gt;Discord Guild&lt;/font&gt;&lt;/h5&gt;" style="whiteSpace=wrap;html=1;" vertex="1" parent="1">
          <mxGeometry x="1326.1538461538462" y="169.41176470588235" width="41.53846153846154" height="28.23529411764706" as="geometry" />
        </mxCell>
        <mxCell id="J6omvvjJ4enyhn-Cp6rl-61" value="&lt;h5 style=&quot;line-height: 120%;&quot;&gt;&lt;font style=&quot;font-size: 8px;&quot;&gt;Discord Guild&lt;/font&gt;&lt;/h5&gt;" style="whiteSpace=wrap;html=1;" vertex="1" parent="1">
          <mxGeometry x="1378.076923076923" y="169.41176470588235" width="41.53846153846154" height="28.23529411764706" as="geometry" />
        </mxCell>
        <mxCell id="J6omvvjJ4enyhn-Cp6rl-72" value="&lt;h5 style=&quot;line-height: 120%;&quot;&gt;&lt;font style=&quot;font-size: 8px;&quot;&gt;Discord Guild&lt;/font&gt;&lt;/h5&gt;" style="whiteSpace=wrap;html=1;" vertex="1" parent="1">
          <mxGeometry x="1170.3846153846155" y="207.05882352941177" width="41.53846153846154" height="28.23529411764706" as="geometry" />
        </mxCell>
        <mxCell id="J6omvvjJ4enyhn-Cp6rl-73" value="&lt;h5 style=&quot;line-height: 120%;&quot;&gt;&lt;font style=&quot;font-size: 8px;&quot;&gt;Discord Guild&lt;/font&gt;&lt;/h5&gt;" style="whiteSpace=wrap;html=1;" vertex="1" parent="1">
          <mxGeometry x="1222.3076923076924" y="207.05882352941177" width="41.53846153846154" height="28.23529411764706" as="geometry" />
        </mxCell>
        <mxCell id="J6omvvjJ4enyhn-Cp6rl-74" value="&lt;h5 style=&quot;line-height: 120%;&quot;&gt;&lt;font style=&quot;font-size: 8px;&quot;&gt;Discord Guild&lt;/font&gt;&lt;/h5&gt;" style="whiteSpace=wrap;html=1;" vertex="1" parent="1">
          <mxGeometry x="1274.2307692307693" y="207.05882352941177" width="41.53846153846154" height="28.23529411764706" as="geometry" />
        </mxCell>
        <mxCell id="J6omvvjJ4enyhn-Cp6rl-75" value="&lt;h5 style=&quot;line-height: 120%;&quot;&gt;&lt;font style=&quot;font-size: 8px;&quot;&gt;Discord Guild&lt;/font&gt;&lt;/h5&gt;" style="whiteSpace=wrap;html=1;" vertex="1" parent="1">
          <mxGeometry x="1326.1538461538462" y="207.05882352941177" width="41.53846153846154" height="28.23529411764706" as="geometry" />
        </mxCell>
        <mxCell id="J6omvvjJ4enyhn-Cp6rl-76" value="&lt;h5 style=&quot;line-height: 120%;&quot;&gt;&lt;font style=&quot;font-size: 8px;&quot;&gt;Discord Guild&lt;/font&gt;&lt;/h5&gt;" style="whiteSpace=wrap;html=1;" vertex="1" parent="1">
          <mxGeometry x="1378.076923076923" y="207.05882352941177" width="41.53846153846154" height="28.23529411764706" as="geometry" />
        </mxCell>
        <mxCell id="J6omvvjJ4enyhn-Cp6rl-77" value="&lt;h5 style=&quot;line-height: 120%;&quot;&gt;&lt;font style=&quot;font-size: 8px;&quot;&gt;Discord Guild&lt;/font&gt;&lt;/h5&gt;" style="whiteSpace=wrap;html=1;" vertex="1" parent="1">
          <mxGeometry x="1170.3846153846155" y="244.7058823529412" width="41.53846153846154" height="28.23529411764706" as="geometry" />
        </mxCell>
        <mxCell id="J6omvvjJ4enyhn-Cp6rl-78" value="&lt;h5 style=&quot;line-height: 120%;&quot;&gt;&lt;font style=&quot;font-size: 8px;&quot;&gt;Discord Guild&lt;/font&gt;&lt;/h5&gt;" style="whiteSpace=wrap;html=1;" vertex="1" parent="1">
          <mxGeometry x="1222.3076923076924" y="244.7058823529412" width="41.53846153846154" height="28.23529411764706" as="geometry" />
        </mxCell>
        <mxCell id="J6omvvjJ4enyhn-Cp6rl-79" value="&lt;h5 style=&quot;line-height: 120%;&quot;&gt;&lt;font style=&quot;font-size: 8px;&quot;&gt;Discord Guild&lt;/font&gt;&lt;/h5&gt;" style="whiteSpace=wrap;html=1;" vertex="1" parent="1">
          <mxGeometry x="1274.2307692307693" y="244.7058823529412" width="41.53846153846154" height="28.23529411764706" as="geometry" />
        </mxCell>
        <mxCell id="J6omvvjJ4enyhn-Cp6rl-80" value="&lt;h5 style=&quot;line-height: 120%;&quot;&gt;&lt;font style=&quot;font-size: 8px;&quot;&gt;Discord Guild&lt;/font&gt;&lt;/h5&gt;" style="whiteSpace=wrap;html=1;" vertex="1" parent="1">
          <mxGeometry x="1326.1538461538462" y="244.7058823529412" width="41.53846153846154" height="28.23529411764706" as="geometry" />
        </mxCell>
        <mxCell id="J6omvvjJ4enyhn-Cp6rl-81" value="&lt;h5 style=&quot;line-height: 120%;&quot;&gt;&lt;font style=&quot;font-size: 8px;&quot;&gt;Discord Guild&lt;/font&gt;&lt;/h5&gt;" style="whiteSpace=wrap;html=1;" vertex="1" parent="1">
          <mxGeometry x="1378.076923076923" y="244.7058823529412" width="41.53846153846154" height="28.23529411764706" as="geometry" />
        </mxCell>
        <mxCell id="J6omvvjJ4enyhn-Cp6rl-82" value="&lt;h5 style=&quot;line-height: 120%;&quot;&gt;&lt;font style=&quot;font-size: 8px;&quot;&gt;Discord Guild&lt;/font&gt;&lt;/h5&gt;" style="whiteSpace=wrap;html=1;" vertex="1" parent="1">
          <mxGeometry x="1170.3846153846155" y="282.3529411764706" width="41.53846153846154" height="28.23529411764706" as="geometry" />
        </mxCell>
        <mxCell id="J6omvvjJ4enyhn-Cp6rl-83" value="&lt;h5 style=&quot;line-height: 120%;&quot;&gt;&lt;font style=&quot;font-size: 8px;&quot;&gt;Discord Guild&lt;/font&gt;&lt;/h5&gt;" style="whiteSpace=wrap;html=1;" vertex="1" parent="1">
          <mxGeometry x="1222.3076923076924" y="282.3529411764706" width="41.53846153846154" height="28.23529411764706" as="geometry" />
        </mxCell>
        <mxCell id="J6omvvjJ4enyhn-Cp6rl-84" value="&lt;h5 style=&quot;line-height: 120%;&quot;&gt;&lt;font style=&quot;font-size: 8px;&quot;&gt;Discord Guild&lt;/font&gt;&lt;/h5&gt;" style="whiteSpace=wrap;html=1;" vertex="1" parent="1">
          <mxGeometry x="1274.2307692307693" y="282.3529411764706" width="41.53846153846154" height="28.23529411764706" as="geometry" />
        </mxCell>
        <mxCell id="J6omvvjJ4enyhn-Cp6rl-85" value="&lt;h5 style=&quot;line-height: 120%;&quot;&gt;&lt;font style=&quot;font-size: 8px;&quot;&gt;Discord Guild&lt;/font&gt;&lt;/h5&gt;" style="whiteSpace=wrap;html=1;" vertex="1" parent="1">
          <mxGeometry x="1326.1538461538462" y="282.3529411764706" width="41.53846153846154" height="28.23529411764706" as="geometry" />
        </mxCell>
        <mxCell id="J6omvvjJ4enyhn-Cp6rl-86" value="&lt;h5 style=&quot;line-height: 120%;&quot;&gt;&lt;font style=&quot;font-size: 8px;&quot;&gt;Discord Guild&lt;/font&gt;&lt;/h5&gt;" style="whiteSpace=wrap;html=1;" vertex="1" parent="1">
          <mxGeometry x="1378.076923076923" y="282.3529411764706" width="41.53846153846154" height="28.23529411764706" as="geometry" />
        </mxCell>
        <mxCell id="J6omvvjJ4enyhn-Cp6rl-96" value="" style="endArrow=none;dashed=1;html=1;dashPattern=1 3;strokeWidth=2;rounded=0;exitX=0.5;exitY=0;exitDx=0;exitDy=0;" edge="1" parent="1" source="J6omvvjJ4enyhn-Cp6rl-90" target="J6omvvjJ4enyhn-Cp6rl-84">
          <mxGeometry width="50" height="50" relative="1" as="geometry">
            <mxPoint x="1230" y="370" as="sourcePoint" />
            <mxPoint x="1280" y="320" as="targetPoint" />
          </mxGeometry>
        </mxCell>
        <mxCell id="J6omvvjJ4enyhn-Cp6rl-99" style="edgeStyle=orthogonalEdgeStyle;rounded=0;orthogonalLoop=1;jettySize=auto;html=1;exitX=0.5;exitY=0;exitDx=0;exitDy=0;entryX=0.5;entryY=0;entryDx=0;entryDy=0;" edge="1" parent="1" source="J6omvvjJ4enyhn-Cp6rl-97" target="J6omvvjJ4enyhn-Cp6rl-33">
          <mxGeometry relative="1" as="geometry" />
        </mxCell>
        <mxCell id="J6omvvjJ4enyhn-Cp6rl-100" style="edgeStyle=orthogonalEdgeStyle;rounded=0;orthogonalLoop=1;jettySize=auto;html=1;exitX=0.5;exitY=0;exitDx=0;exitDy=0;entryX=0.5;entryY=0;entryDx=0;entryDy=0;" edge="1" parent="1" source="J6omvvjJ4enyhn-Cp6rl-97" target="J6omvvjJ4enyhn-Cp6rl-37">
          <mxGeometry relative="1" as="geometry" />
        </mxCell>
        <mxCell id="J6omvvjJ4enyhn-Cp6rl-101" style="edgeStyle=orthogonalEdgeStyle;rounded=0;orthogonalLoop=1;jettySize=auto;html=1;exitX=0.5;exitY=0;exitDx=0;exitDy=0;entryX=0.5;entryY=0;entryDx=0;entryDy=0;" edge="1" parent="1" source="J6omvvjJ4enyhn-Cp6rl-97" target="J6omvvjJ4enyhn-Cp6rl-41">
          <mxGeometry relative="1" as="geometry" />
        </mxCell>
        <mxCell id="J6omvvjJ4enyhn-Cp6rl-103" style="edgeStyle=orthogonalEdgeStyle;rounded=0;orthogonalLoop=1;jettySize=auto;html=1;exitX=0.5;exitY=1;exitDx=0;exitDy=0;entryX=0;entryY=0.5;entryDx=0;entryDy=0;" edge="1" parent="1" source="J6omvvjJ4enyhn-Cp6rl-97" target="J6omvvjJ4enyhn-Cp6rl-45">
          <mxGeometry relative="1" as="geometry" />
        </mxCell>
        <mxCell id="J6omvvjJ4enyhn-Cp6rl-97" value="Redis" style="rounded=0;whiteSpace=wrap;html=1;" vertex="1" parent="1">
          <mxGeometry x="570" y="222.35" width="60" height="30" as="geometry" />
        </mxCell>
        <mxCell id="J6omvvjJ4enyhn-Cp6rl-98" style="edgeStyle=orthogonalEdgeStyle;rounded=0;orthogonalLoop=1;jettySize=auto;html=1;exitX=0.5;exitY=0;exitDx=0;exitDy=0;entryX=-0.006;entryY=0.454;entryDx=0;entryDy=0;entryPerimeter=0;" edge="1" parent="1" source="J6omvvjJ4enyhn-Cp6rl-97" target="J6omvvjJ4enyhn-Cp6rl-30">
          <mxGeometry relative="1" as="geometry" />
        </mxCell>
        <mxCell id="J6omvvjJ4enyhn-Cp6rl-102" value="&lt;font style=&quot;font-size: 10px;&quot;&gt;Leaderboard/user data will be cached and updated every &amp;lt;&amp;gt; interval&lt;/font&gt;" style="text;html=1;align=center;verticalAlign=middle;resizable=0;points=[];autosize=1;strokeColor=none;fillColor=none;rotation=0;" vertex="1" parent="1">
          <mxGeometry x="460" y="380" width="330" height="30" as="geometry" />
        </mxCell>
        <mxCell id="J6omvvjJ4enyhn-Cp6rl-105" style="edgeStyle=orthogonalEdgeStyle;rounded=0;orthogonalLoop=1;jettySize=auto;html=1;exitX=0.5;exitY=1;exitDx=0;exitDy=0;entryX=0.969;entryY=0.613;entryDx=0;entryDy=0;entryPerimeter=0;" edge="1" parent="1" source="J6omvvjJ4enyhn-Cp6rl-90" target="J6omvvjJ4enyhn-Cp6rl-92">
          <mxGeometry relative="1" as="geometry" />
        </mxCell>
        <mxCell id="J6omvvjJ4enyhn-Cp6rl-110" style="edgeStyle=orthogonalEdgeStyle;rounded=0;orthogonalLoop=1;jettySize=auto;html=1;exitX=0;exitY=0;exitDx=55.455;exitDy=0;exitPerimeter=0;entryX=0.5;entryY=1;entryDx=0;entryDy=0;" edge="1" parent="1" source="J6omvvjJ4enyhn-Cp6rl-107" target="J6omvvjJ4enyhn-Cp6rl-45">
          <mxGeometry relative="1" as="geometry" />
        </mxCell>
        <mxCell id="J6omvvjJ4enyhn-Cp6rl-107" value="Kafka Consumers (auto-scale on load)" style="shape=cube;whiteSpace=wrap;html=1;boundedLbl=1;backgroundOutline=1;darkOpacity=0.05;darkOpacity2=0.1;" vertex="1" parent="1">
          <mxGeometry x="900" y="410" width="130.91" height="60" as="geometry" />
        </mxCell>
        <mxCell id="J6omvvjJ4enyhn-Cp6rl-109" style="edgeStyle=orthogonalEdgeStyle;rounded=0;orthogonalLoop=1;jettySize=auto;html=1;exitX=0.13;exitY=0.77;exitDx=0;exitDy=0;exitPerimeter=0;entryX=1.006;entryY=0.733;entryDx=0;entryDy=0;entryPerimeter=0;" edge="1" parent="1" source="J6omvvjJ4enyhn-Cp6rl-92" target="J6omvvjJ4enyhn-Cp6rl-107">
          <mxGeometry relative="1" as="geometry" />
        </mxCell>
        <mxCell id="J6omvvjJ4enyhn-Cp6rl-111" value="All XP &amp;amp; promotions handled through a queue" style="text;html=1;align=center;verticalAlign=middle;resizable=0;points=[];autosize=1;strokeColor=none;fillColor=none;" vertex="1" parent="1">
          <mxGeometry x="1180" y="425" width="270" height="30" as="geometry" />
        </mxCell>
        <mxCell id="J6omvvjJ4enyhn-Cp6rl-112" value="Depending on load of messages passed to Kafka server, more nodes can be produced to handle workload" style="text;html=1;align=center;verticalAlign=middle;resizable=0;points=[];autosize=1;strokeColor=none;fillColor=none;" vertex="1" parent="1">
          <mxGeometry x="600" y="480" width="590" height="30" as="geometry" />
        </mxCell>
        <mxCell id="J6omvvjJ4enyhn-Cp6rl-113" style="edgeStyle=orthogonalEdgeStyle;rounded=0;orthogonalLoop=1;jettySize=auto;html=1;exitX=0;exitY=0.5;exitDx=0;exitDy=0;entryX=1.019;entryY=0.627;entryDx=0;entryDy=0;entryPerimeter=0;" edge="1" parent="1" source="J6omvvjJ4enyhn-Cp6rl-97" target="J6omvvjJ4enyhn-Cp6rl-90">
          <mxGeometry relative="1" as="geometry">
            <Array as="points">
              <mxPoint x="550" y="237" />
              <mxPoint x="550" y="80" />
              <mxPoint x="1490" y="80" />
              <mxPoint x="1490" y="365" />
            </Array>
          </mxGeometry>
        </mxCell>
        <mxCell id="J6omvvjJ4enyhn-Cp6rl-114" value="&lt;font style=&quot;font-size: 9px;&quot;&gt;Depending on load of messages (ingested messages), &lt;i style=&quot;&quot;&gt;&lt;b&gt;some &lt;/b&gt;information will be cached about the user&lt;/i&gt;&lt;/font&gt;" style="text;html=1;align=center;verticalAlign=middle;whiteSpace=wrap;rounded=0;" vertex="1" parent="1">
          <mxGeometry x="1290" y="370" width="440" height="30" as="geometry" />
        </mxCell>
      </root>
    </mxGraphModel>
  </diagram>
</mxfile>
